<mxfile host="app.diagrams.net" modified="2021-10-18T14:35:32.832Z" agent="5.0 (Macintosh)" etag="tqaoCzd9qAfZlqAsGOUt" version="14.8.0" type="github">
  <diagram id="U6cOg7QtwTTSKhItiI74" name="Page-1">
    <mxGraphModel dx="694" dy="671" grid="1" gridSize="10" guides="1" tooltips="1" connect="1" arrows="1" fold="1" page="1" pageScale="1" pageWidth="850" pageHeight="1100" math="0" shadow="0">
      <root>
        <mxCell id="0" />
        <mxCell id="1" parent="0" />
        <mxCell id="KmzOcnI8nBByTbkNXm2--2" value="" style="line;strokeWidth=2;html=1;" vertex="1" parent="1">
          <mxGeometry x="40" y="200" width="500" height="10" as="geometry" />
        </mxCell>
        <mxCell id="KmzOcnI8nBByTbkNXm2--29" style="edgeStyle=orthogonalEdgeStyle;rounded=0;orthogonalLoop=1;jettySize=auto;html=1;exitX=0.5;exitY=1;exitDx=0;exitDy=0;entryX=0.5;entryY=0;entryDx=0;entryDy=0;endArrow=none;endFill=0;curved=1;strokeWidth=2;" edge="1" parent="1" source="KmzOcnI8nBByTbkNXm2--4" target="KmzOcnI8nBByTbkNXm2--19">
          <mxGeometry relative="1" as="geometry" />
        </mxCell>
        <mxCell id="KmzOcnI8nBByTbkNXm2--4" value="" style="ellipse;whiteSpace=wrap;html=1;aspect=fixed;fontStyle=1;fillColor=#dae8fc;strokeWidth=2;strokeColor=#333333;" vertex="1" parent="1">
          <mxGeometry x="120" y="195" width="20" height="20" as="geometry" />
        </mxCell>
        <mxCell id="KmzOcnI8nBByTbkNXm2--30" style="edgeStyle=orthogonalEdgeStyle;rounded=0;orthogonalLoop=1;jettySize=auto;html=1;exitX=0.5;exitY=1;exitDx=0;exitDy=0;entryX=0.5;entryY=0;entryDx=0;entryDy=0;endArrow=none;endFill=0;curved=1;strokeWidth=2;" edge="1" parent="1" source="KmzOcnI8nBByTbkNXm2--5" target="KmzOcnI8nBByTbkNXm2--20">
          <mxGeometry relative="1" as="geometry" />
        </mxCell>
        <mxCell id="KmzOcnI8nBByTbkNXm2--5" value="" style="ellipse;whiteSpace=wrap;html=1;aspect=fixed;fillColor=#dae8fc;strokeWidth=2;strokeColor=#333333;" vertex="1" parent="1">
          <mxGeometry x="310" y="195" width="20" height="20" as="geometry" />
        </mxCell>
        <mxCell id="KmzOcnI8nBByTbkNXm2--8" value="feature-branch" style="text;html=1;strokeColor=none;fillColor=none;align=center;verticalAlign=middle;whiteSpace=wrap;rounded=0;fontFamily=Courier New;" vertex="1" parent="1">
          <mxGeometry x="40" y="280" width="110" height="20" as="geometry" />
        </mxCell>
        <mxCell id="KmzOcnI8nBByTbkNXm2--18" value="" style="line;strokeWidth=2;html=1;" vertex="1" parent="1">
          <mxGeometry x="170" y="285" width="270" height="10" as="geometry" />
        </mxCell>
        <mxCell id="KmzOcnI8nBByTbkNXm2--19" value="B" style="ellipse;whiteSpace=wrap;html=1;aspect=fixed;fontStyle=1;fillColor=#d5e8d4;strokeWidth=2;strokeColor=#82b366;" vertex="1" parent="1">
          <mxGeometry x="160" y="280" width="20" height="20" as="geometry" />
        </mxCell>
        <mxCell id="KmzOcnI8nBByTbkNXm2--20" value="R" style="ellipse;whiteSpace=wrap;html=1;aspect=fixed;fillColor=#d5e8d4;strokeWidth=2;strokeColor=#82b366;" vertex="1" parent="1">
          <mxGeometry x="320" y="280" width="20" height="20" as="geometry" />
        </mxCell>
        <mxCell id="KmzOcnI8nBByTbkNXm2--32" style="edgeStyle=orthogonalEdgeStyle;rounded=0;orthogonalLoop=1;jettySize=auto;html=1;exitX=1;exitY=0.5;exitDx=0;exitDy=0;endArrow=none;endFill=0;curved=1;strokeWidth=2;" edge="1" parent="1" source="KmzOcnI8nBByTbkNXm2--21">
          <mxGeometry relative="1" as="geometry">
            <mxPoint x="540" y="212" as="targetPoint" />
          </mxGeometry>
        </mxCell>
        <mxCell id="KmzOcnI8nBByTbkNXm2--21" value="PR" style="ellipse;whiteSpace=wrap;html=1;aspect=fixed;fillColor=#d5e8d4;strokeColor=#82b366;strokeWidth=2;" vertex="1" parent="1">
          <mxGeometry x="425" y="280" width="20" height="20" as="geometry" />
        </mxCell>
        <mxCell id="KmzOcnI8nBByTbkNXm2--22" value="" style="ellipse;whiteSpace=wrap;html=1;aspect=fixed;fontStyle=1;fillColor=#d5e8d4;strokeWidth=2;strokeColor=#82b366;" vertex="1" parent="1">
          <mxGeometry x="230" y="280" width="20" height="20" as="geometry" />
        </mxCell>
        <mxCell id="KmzOcnI8nBByTbkNXm2--37" value="" style="ellipse;whiteSpace=wrap;html=1;aspect=fixed;fillColor=#dae8fc;strokeColor=#000033;strokeWidth=2;" vertex="1" parent="1">
          <mxGeometry x="530" y="195" width="20" height="20" as="geometry" />
        </mxCell>
        <mxCell id="KmzOcnI8nBByTbkNXm2--38" value="Original commit" style="text;html=1;strokeColor=none;fillColor=none;align=center;verticalAlign=middle;whiteSpace=wrap;rounded=0;" vertex="1" parent="1">
          <mxGeometry x="80" y="170" width="100" height="20" as="geometry" />
        </mxCell>
        <mxCell id="KmzOcnI8nBByTbkNXm2--40" value="New Commit" style="text;html=1;strokeColor=none;fillColor=none;align=center;verticalAlign=middle;whiteSpace=wrap;rounded=0;" vertex="1" parent="1">
          <mxGeometry x="270" y="170" width="100" height="20" as="geometry" />
        </mxCell>
        <mxCell id="KmzOcnI8nBByTbkNXm2--41" value="Your Feature Commit" style="text;html=1;strokeColor=none;fillColor=none;align=center;verticalAlign=middle;whiteSpace=wrap;rounded=0;" vertex="1" parent="1">
          <mxGeometry x="490" y="170" width="130" height="20" as="geometry" />
        </mxCell>
        <mxCell id="KmzOcnI8nBByTbkNXm2--43" value="Marcy" style="text;html=1;strokeColor=none;fillColor=none;align=center;verticalAlign=middle;whiteSpace=wrap;rounded=0;fontColor=#006600;" vertex="1" parent="1">
          <mxGeometry x="20" y="230" width="40" height="20" as="geometry" />
        </mxCell>
        <mxCell id="KmzOcnI8nBByTbkNXm2--44" value="develop" style="text;html=1;strokeColor=none;fillColor=none;align=center;verticalAlign=middle;whiteSpace=wrap;rounded=0;fontFamily=Courier New;" vertex="1" parent="1">
          <mxGeometry x="10" y="210" width="40" height="20" as="geometry" />
        </mxCell>
        <mxCell id="KmzOcnI8nBByTbkNXm2--47" style="edgeStyle=orthogonalEdgeStyle;rounded=0;orthogonalLoop=1;jettySize=auto;html=1;exitX=0.5;exitY=1;exitDx=0;exitDy=0;fontFamily=Courier New;fontColor=#006600;endArrow=none;endFill=0;" edge="1" parent="1" source="KmzOcnI8nBByTbkNXm2--8" target="KmzOcnI8nBByTbkNXm2--8">
          <mxGeometry relative="1" as="geometry" />
        </mxCell>
        <mxCell id="KmzOcnI8nBByTbkNXm2--48" value="Marcy" style="text;html=1;strokeColor=none;fillColor=none;align=center;verticalAlign=middle;whiteSpace=wrap;rounded=0;fontColor=#006600;" vertex="1" parent="1">
          <mxGeometry x="100" y="300" width="40" height="20" as="geometry" />
        </mxCell>
        <mxCell id="KmzOcnI8nBByTbkNXm2--49" value="&lt;div align=&quot;left&quot;&gt;&lt;font face=&quot;Helvetica&quot;&gt;R = Rebase&lt;/font&gt;&lt;/div&gt;&lt;div align=&quot;left&quot;&gt;&lt;font face=&quot;Helvetica&quot;&gt;B = New Branch&lt;/font&gt;&lt;/div&gt;&lt;div align=&quot;left&quot;&gt;&lt;font face=&quot;Helvetica&quot;&gt;PR = Pull Request&lt;br&gt;&lt;/font&gt;&lt;/div&gt;" style="text;html=1;strokeColor=none;fillColor=none;align=left;verticalAlign=middle;whiteSpace=wrap;rounded=0;fontFamily=Courier New;" vertex="1" parent="1">
          <mxGeometry x="45" y="360" width="110" height="20" as="geometry" />
        </mxCell>
        <mxCell id="KmzOcnI8nBByTbkNXm2--51" value="Typical Development Workflow" style="text;html=1;strokeColor=none;fillColor=none;align=center;verticalAlign=middle;whiteSpace=wrap;rounded=0;fontSize=19;" vertex="1" parent="1">
          <mxGeometry x="50" y="90" width="480" height="20" as="geometry" />
        </mxCell>
        <mxCell id="KmzOcnI8nBByTbkNXm2--52" value="Typical End of Sprint Workflow - Part 1" style="text;html=1;strokeColor=none;fillColor=none;align=center;verticalAlign=middle;whiteSpace=wrap;rounded=0;fontSize=19;" vertex="1" parent="1">
          <mxGeometry x="50" y="460" width="480" height="20" as="geometry" />
        </mxCell>
        <mxCell id="KmzOcnI8nBByTbkNXm2--74" value="" style="line;strokeWidth=2;html=1;" vertex="1" parent="1">
          <mxGeometry x="50" y="560" width="500" height="10" as="geometry" />
        </mxCell>
        <mxCell id="KmzOcnI8nBByTbkNXm2--75" style="edgeStyle=orthogonalEdgeStyle;rounded=0;orthogonalLoop=1;jettySize=auto;html=1;exitX=0.5;exitY=1;exitDx=0;exitDy=0;entryX=0.5;entryY=0;entryDx=0;entryDy=0;endArrow=none;endFill=0;curved=1;strokeWidth=2;" edge="1" parent="1" source="KmzOcnI8nBByTbkNXm2--76" target="KmzOcnI8nBByTbkNXm2--81">
          <mxGeometry relative="1" as="geometry" />
        </mxCell>
        <mxCell id="KmzOcnI8nBByTbkNXm2--76" value="" style="ellipse;whiteSpace=wrap;html=1;aspect=fixed;fontStyle=1;fillColor=#dae8fc;strokeWidth=2;strokeColor=#333333;" vertex="1" parent="1">
          <mxGeometry x="130" y="555" width="20" height="20" as="geometry" />
        </mxCell>
        <mxCell id="KmzOcnI8nBByTbkNXm2--77" style="edgeStyle=orthogonalEdgeStyle;rounded=0;orthogonalLoop=1;jettySize=auto;html=1;exitX=0.5;exitY=1;exitDx=0;exitDy=0;entryX=0.5;entryY=0;entryDx=0;entryDy=0;endArrow=none;endFill=0;curved=1;strokeWidth=2;" edge="1" parent="1" source="KmzOcnI8nBByTbkNXm2--78" target="KmzOcnI8nBByTbkNXm2--82">
          <mxGeometry relative="1" as="geometry" />
        </mxCell>
        <mxCell id="KmzOcnI8nBByTbkNXm2--78" value="" style="ellipse;whiteSpace=wrap;html=1;aspect=fixed;fillColor=#dae8fc;strokeWidth=2;strokeColor=#333333;" vertex="1" parent="1">
          <mxGeometry x="320" y="555" width="20" height="20" as="geometry" />
        </mxCell>
        <mxCell id="KmzOcnI8nBByTbkNXm2--79" value="develop" style="text;html=1;strokeColor=none;fillColor=none;align=center;verticalAlign=middle;whiteSpace=wrap;rounded=0;fontFamily=Courier New;" vertex="1" parent="1">
          <mxGeometry x="65" y="640" width="110" height="20" as="geometry" />
        </mxCell>
        <mxCell id="KmzOcnI8nBByTbkNXm2--80" value="" style="line;strokeWidth=2;html=1;" vertex="1" parent="1">
          <mxGeometry x="180" y="645" width="270" height="10" as="geometry" />
        </mxCell>
        <mxCell id="KmzOcnI8nBByTbkNXm2--81" value="B" style="ellipse;whiteSpace=wrap;html=1;aspect=fixed;fontStyle=1;fillColor=#d5e8d4;strokeWidth=2;strokeColor=#82b366;" vertex="1" parent="1">
          <mxGeometry x="170" y="640" width="20" height="20" as="geometry" />
        </mxCell>
        <mxCell id="KmzOcnI8nBByTbkNXm2--82" value="R" style="ellipse;whiteSpace=wrap;html=1;aspect=fixed;fillColor=#d5e8d4;strokeWidth=2;strokeColor=#82b366;" vertex="1" parent="1">
          <mxGeometry x="351" y="640" width="20" height="20" as="geometry" />
        </mxCell>
        <mxCell id="KmzOcnI8nBByTbkNXm2--83" style="edgeStyle=orthogonalEdgeStyle;rounded=0;orthogonalLoop=1;jettySize=auto;html=1;exitX=1;exitY=0.5;exitDx=0;exitDy=0;endArrow=none;endFill=0;curved=1;strokeWidth=2;" edge="1" parent="1" source="KmzOcnI8nBByTbkNXm2--84">
          <mxGeometry relative="1" as="geometry">
            <mxPoint x="550" y="572" as="targetPoint" />
          </mxGeometry>
        </mxCell>
        <mxCell id="KmzOcnI8nBByTbkNXm2--84" value="PR" style="ellipse;whiteSpace=wrap;html=1;aspect=fixed;fillColor=#d5e8d4;strokeColor=#82b366;strokeWidth=2;" vertex="1" parent="1">
          <mxGeometry x="435" y="640" width="20" height="20" as="geometry" />
        </mxCell>
        <mxCell id="KmzOcnI8nBByTbkNXm2--85" value="F1" style="ellipse;whiteSpace=wrap;html=1;aspect=fixed;fontStyle=1;fillColor=#d5e8d4;strokeWidth=2;strokeColor=#82b366;" vertex="1" parent="1">
          <mxGeometry x="233" y="640" width="20" height="20" as="geometry" />
        </mxCell>
        <mxCell id="KmzOcnI8nBByTbkNXm2--86" value="" style="ellipse;whiteSpace=wrap;html=1;aspect=fixed;fillColor=#dae8fc;strokeColor=#000033;strokeWidth=2;" vertex="1" parent="1">
          <mxGeometry x="540" y="555" width="20" height="20" as="geometry" />
        </mxCell>
        <mxCell id="KmzOcnI8nBByTbkNXm2--87" value="Original commit" style="text;html=1;strokeColor=none;fillColor=none;align=center;verticalAlign=middle;whiteSpace=wrap;rounded=0;" vertex="1" parent="1">
          <mxGeometry x="90" y="530" width="100" height="20" as="geometry" />
        </mxCell>
        <mxCell id="KmzOcnI8nBByTbkNXm2--88" value="New Commit" style="text;html=1;strokeColor=none;fillColor=none;align=center;verticalAlign=middle;whiteSpace=wrap;rounded=0;" vertex="1" parent="1">
          <mxGeometry x="280" y="530" width="100" height="20" as="geometry" />
        </mxCell>
        <mxCell id="KmzOcnI8nBByTbkNXm2--89" value="Marcy" style="text;html=1;strokeColor=none;fillColor=none;align=center;verticalAlign=middle;whiteSpace=wrap;rounded=0;fontColor=#006600;" vertex="1" parent="1">
          <mxGeometry x="30" y="590" width="40" height="20" as="geometry" />
        </mxCell>
        <mxCell id="KmzOcnI8nBByTbkNXm2--90" value="release" style="text;html=1;strokeColor=none;fillColor=none;align=center;verticalAlign=middle;whiteSpace=wrap;rounded=0;fontFamily=Courier New;" vertex="1" parent="1">
          <mxGeometry x="20" y="570" width="40" height="20" as="geometry" />
        </mxCell>
        <mxCell id="KmzOcnI8nBByTbkNXm2--91" style="edgeStyle=orthogonalEdgeStyle;rounded=0;orthogonalLoop=1;jettySize=auto;html=1;exitX=0.5;exitY=1;exitDx=0;exitDy=0;fontFamily=Courier New;fontColor=#006600;endArrow=none;endFill=0;" edge="1" parent="1" source="KmzOcnI8nBByTbkNXm2--79" target="KmzOcnI8nBByTbkNXm2--79">
          <mxGeometry relative="1" as="geometry" />
        </mxCell>
        <mxCell id="KmzOcnI8nBByTbkNXm2--92" value="Marcy" style="text;html=1;strokeColor=none;fillColor=none;align=center;verticalAlign=middle;whiteSpace=wrap;rounded=0;fontColor=#006600;" vertex="1" parent="1">
          <mxGeometry x="110" y="660" width="40" height="20" as="geometry" />
        </mxCell>
        <mxCell id="KmzOcnI8nBByTbkNXm2--93" value="&lt;div align=&quot;left&quot;&gt;&lt;font face=&quot;Helvetica&quot;&gt;R = Rebase&lt;/font&gt;&lt;/div&gt;&lt;div align=&quot;left&quot;&gt;&lt;font face=&quot;Helvetica&quot;&gt;B = New Branch&lt;/font&gt;&lt;/div&gt;&lt;div align=&quot;left&quot;&gt;&lt;font face=&quot;Helvetica&quot;&gt;PR = Pull Request&lt;/font&gt;&lt;/div&gt;&lt;div align=&quot;left&quot;&gt;&lt;font face=&quot;Helvetica&quot;&gt;F1 = Feature 1&lt;/font&gt;&lt;/div&gt;&lt;div align=&quot;left&quot;&gt;&lt;font face=&quot;Helvetica&quot;&gt;FN = Feature N&lt;br&gt;&lt;/font&gt;&lt;/div&gt;" style="text;html=1;strokeColor=none;fillColor=none;align=left;verticalAlign=middle;whiteSpace=wrap;rounded=0;fontFamily=Courier New;" vertex="1" parent="1">
          <mxGeometry x="55" y="720" width="110" height="20" as="geometry" />
        </mxCell>
        <mxCell id="KmzOcnI8nBByTbkNXm2--96" value="End of Sprint Commits" style="text;html=1;strokeColor=none;fillColor=none;align=center;verticalAlign=middle;whiteSpace=wrap;rounded=0;" vertex="1" parent="1">
          <mxGeometry x="500" y="530" width="130" height="20" as="geometry" />
        </mxCell>
        <mxCell id="KmzOcnI8nBByTbkNXm2--97" value="FN" style="ellipse;whiteSpace=wrap;html=1;aspect=fixed;fontStyle=1;fillColor=#d5e8d4;strokeWidth=2;strokeColor=#82b366;" vertex="1" parent="1">
          <mxGeometry x="280" y="640" width="20" height="20" as="geometry" />
        </mxCell>
        <mxCell id="KmzOcnI8nBByTbkNXm2--99" value="" style="ellipse;whiteSpace=wrap;html=1;aspect=fixed;fontStyle=1;fillColor=#d5e8d4;strokeWidth=2;strokeColor=#82b366;" vertex="1" parent="1">
          <mxGeometry x="314" y="640" width="20" height="20" as="geometry" />
        </mxCell>
        <mxCell id="KmzOcnI8nBByTbkNXm2--101" value="" style="line;strokeWidth=2;html=1;" vertex="1" parent="1">
          <mxGeometry x="46" y="910" width="500" height="10" as="geometry" />
        </mxCell>
        <mxCell id="KmzOcnI8nBByTbkNXm2--102" style="edgeStyle=orthogonalEdgeStyle;rounded=0;orthogonalLoop=1;jettySize=auto;html=1;exitX=0.5;exitY=1;exitDx=0;exitDy=0;entryX=0.5;entryY=0;entryDx=0;entryDy=0;endArrow=none;endFill=0;curved=1;strokeWidth=2;" edge="1" parent="1" source="KmzOcnI8nBByTbkNXm2--103" target="KmzOcnI8nBByTbkNXm2--108">
          <mxGeometry relative="1" as="geometry" />
        </mxCell>
        <mxCell id="KmzOcnI8nBByTbkNXm2--103" value="" style="ellipse;whiteSpace=wrap;html=1;aspect=fixed;fontStyle=1;fillColor=#dae8fc;strokeWidth=2;strokeColor=#333333;" vertex="1" parent="1">
          <mxGeometry x="126" y="905" width="20" height="20" as="geometry" />
        </mxCell>
        <mxCell id="KmzOcnI8nBByTbkNXm2--104" style="edgeStyle=orthogonalEdgeStyle;rounded=0;orthogonalLoop=1;jettySize=auto;html=1;exitX=0.5;exitY=1;exitDx=0;exitDy=0;entryX=0.5;entryY=0;entryDx=0;entryDy=0;endArrow=none;endFill=0;curved=1;strokeWidth=2;" edge="1" parent="1" source="KmzOcnI8nBByTbkNXm2--105" target="KmzOcnI8nBByTbkNXm2--109">
          <mxGeometry relative="1" as="geometry" />
        </mxCell>
        <mxCell id="KmzOcnI8nBByTbkNXm2--105" value="" style="ellipse;whiteSpace=wrap;html=1;aspect=fixed;fillColor=#dae8fc;strokeWidth=2;strokeColor=#333333;" vertex="1" parent="1">
          <mxGeometry x="316" y="905" width="20" height="20" as="geometry" />
        </mxCell>
        <mxCell id="KmzOcnI8nBByTbkNXm2--106" value="release" style="text;html=1;strokeColor=none;fillColor=none;align=center;verticalAlign=middle;whiteSpace=wrap;rounded=0;fontFamily=Courier New;" vertex="1" parent="1">
          <mxGeometry x="46" y="990" width="110" height="20" as="geometry" />
        </mxCell>
        <mxCell id="KmzOcnI8nBByTbkNXm2--107" value="" style="line;strokeWidth=2;html=1;" vertex="1" parent="1">
          <mxGeometry x="176" y="995" width="270" height="10" as="geometry" />
        </mxCell>
        <mxCell id="KmzOcnI8nBByTbkNXm2--108" value="B" style="ellipse;whiteSpace=wrap;html=1;aspect=fixed;fontStyle=1;fillColor=#d5e8d4;strokeWidth=2;strokeColor=#82b366;" vertex="1" parent="1">
          <mxGeometry x="166" y="990" width="20" height="20" as="geometry" />
        </mxCell>
        <mxCell id="KmzOcnI8nBByTbkNXm2--109" value="R" style="ellipse;whiteSpace=wrap;html=1;aspect=fixed;fillColor=#d5e8d4;strokeWidth=2;strokeColor=#82b366;" vertex="1" parent="1">
          <mxGeometry x="326" y="990" width="20" height="20" as="geometry" />
        </mxCell>
        <mxCell id="KmzOcnI8nBByTbkNXm2--110" style="edgeStyle=orthogonalEdgeStyle;rounded=0;orthogonalLoop=1;jettySize=auto;html=1;exitX=1;exitY=0.5;exitDx=0;exitDy=0;endArrow=none;endFill=0;curved=1;strokeWidth=2;" edge="1" parent="1" source="KmzOcnI8nBByTbkNXm2--111">
          <mxGeometry relative="1" as="geometry">
            <mxPoint x="546" y="922" as="targetPoint" />
          </mxGeometry>
        </mxCell>
        <mxCell id="KmzOcnI8nBByTbkNXm2--111" value="PR" style="ellipse;whiteSpace=wrap;html=1;aspect=fixed;fillColor=#d5e8d4;strokeColor=#82b366;strokeWidth=2;" vertex="1" parent="1">
          <mxGeometry x="431" y="990" width="20" height="20" as="geometry" />
        </mxCell>
        <mxCell id="KmzOcnI8nBByTbkNXm2--112" value="ES" style="ellipse;whiteSpace=wrap;html=1;aspect=fixed;fontStyle=1;fillColor=#d5e8d4;strokeWidth=2;strokeColor=#82b366;" vertex="1" parent="1">
          <mxGeometry x="236" y="990" width="20" height="20" as="geometry" />
        </mxCell>
        <mxCell id="KmzOcnI8nBByTbkNXm2--113" value="" style="ellipse;whiteSpace=wrap;html=1;aspect=fixed;fillColor=#dae8fc;strokeColor=#000033;strokeWidth=2;" vertex="1" parent="1">
          <mxGeometry x="536" y="905" width="20" height="20" as="geometry" />
        </mxCell>
        <mxCell id="KmzOcnI8nBByTbkNXm2--114" value="Original commit" style="text;html=1;strokeColor=none;fillColor=none;align=center;verticalAlign=middle;whiteSpace=wrap;rounded=0;" vertex="1" parent="1">
          <mxGeometry x="86" y="880" width="100" height="20" as="geometry" />
        </mxCell>
        <mxCell id="KmzOcnI8nBByTbkNXm2--115" value="New Commit" style="text;html=1;strokeColor=none;fillColor=none;align=center;verticalAlign=middle;whiteSpace=wrap;rounded=0;" vertex="1" parent="1">
          <mxGeometry x="276" y="880" width="100" height="20" as="geometry" />
        </mxCell>
        <mxCell id="KmzOcnI8nBByTbkNXm2--116" value="End of Sprint Commits" style="text;html=1;strokeColor=none;fillColor=none;align=center;verticalAlign=middle;whiteSpace=wrap;rounded=0;" vertex="1" parent="1">
          <mxGeometry x="496" y="880" width="130" height="20" as="geometry" />
        </mxCell>
        <mxCell id="KmzOcnI8nBByTbkNXm2--117" value="Bedrock" style="text;html=1;strokeColor=none;fillColor=none;align=center;verticalAlign=middle;whiteSpace=wrap;rounded=0;fontColor=#006600;" vertex="1" parent="1">
          <mxGeometry x="26" y="940" width="40" height="20" as="geometry" />
        </mxCell>
        <mxCell id="KmzOcnI8nBByTbkNXm2--118" value="release" style="text;html=1;strokeColor=none;fillColor=none;align=center;verticalAlign=middle;whiteSpace=wrap;rounded=0;fontFamily=Courier New;" vertex="1" parent="1">
          <mxGeometry x="16" y="920" width="40" height="20" as="geometry" />
        </mxCell>
        <mxCell id="KmzOcnI8nBByTbkNXm2--119" style="edgeStyle=orthogonalEdgeStyle;rounded=0;orthogonalLoop=1;jettySize=auto;html=1;exitX=0.5;exitY=1;exitDx=0;exitDy=0;fontFamily=Courier New;fontColor=#006600;endArrow=none;endFill=0;" edge="1" parent="1" source="KmzOcnI8nBByTbkNXm2--106" target="KmzOcnI8nBByTbkNXm2--106">
          <mxGeometry relative="1" as="geometry" />
        </mxCell>
        <mxCell id="KmzOcnI8nBByTbkNXm2--120" value="Marcy" style="text;html=1;strokeColor=none;fillColor=none;align=center;verticalAlign=middle;whiteSpace=wrap;rounded=0;fontColor=#006600;" vertex="1" parent="1">
          <mxGeometry x="89" y="1010" width="40" height="20" as="geometry" />
        </mxCell>
        <mxCell id="KmzOcnI8nBByTbkNXm2--121" value="&lt;div align=&quot;left&quot;&gt;&lt;font face=&quot;Helvetica&quot;&gt;R = Rebase&lt;/font&gt;&lt;/div&gt;&lt;div align=&quot;left&quot;&gt;&lt;font face=&quot;Helvetica&quot;&gt;B = New Branch&lt;/font&gt;&lt;/div&gt;&lt;div align=&quot;left&quot;&gt;&lt;font face=&quot;Helvetica&quot;&gt;ES = End of Sprint Commit&lt;br&gt;&lt;/font&gt;&lt;/div&gt;&lt;div align=&quot;left&quot;&gt;&lt;font face=&quot;Helvetica&quot;&gt;PR = Pull Request&lt;br&gt;&lt;/font&gt;&lt;/div&gt;" style="text;html=1;strokeColor=none;fillColor=none;align=left;verticalAlign=middle;whiteSpace=wrap;rounded=0;fontFamily=Courier New;" vertex="1" parent="1">
          <mxGeometry x="51" y="1070" width="159" height="20" as="geometry" />
        </mxCell>
        <mxCell id="KmzOcnI8nBByTbkNXm2--122" value="Typical End of Sprint Workflow - Part 2" style="text;html=1;strokeColor=none;fillColor=none;align=center;verticalAlign=middle;whiteSpace=wrap;rounded=0;fontSize=19;" vertex="1" parent="1">
          <mxGeometry x="50" y="820" width="480" height="20" as="geometry" />
        </mxCell>
        <mxCell id="KmzOcnI8nBByTbkNXm2--124" value="" style="ellipse;whiteSpace=wrap;html=1;aspect=fixed;fontStyle=1;fillColor=#d5e8d4;strokeWidth=2;strokeColor=#82b366;" vertex="1" parent="1">
          <mxGeometry x="280" y="990" width="20" height="20" as="geometry" />
        </mxCell>
        <mxCell id="KmzOcnI8nBByTbkNXm2--125" value="Once the PR is approved it will be merged (not rebased) back into develop" style="text;html=1;strokeColor=none;fillColor=none;align=center;verticalAlign=middle;whiteSpace=wrap;rounded=0;" vertex="1" parent="1">
          <mxGeometry x="330" y="360" width="236" height="20" as="geometry" />
        </mxCell>
        <mxCell id="KmzOcnI8nBByTbkNXm2--126" value="" style="endArrow=classic;html=1;fontFamily=Courier New;fontSize=12;fontColor=#006600;strokeWidth=1;entryX=0.5;entryY=1;entryDx=0;entryDy=0;exitX=0.449;exitY=-0.1;exitDx=0;exitDy=0;exitPerimeter=0;" edge="1" parent="1" source="KmzOcnI8nBByTbkNXm2--125" target="KmzOcnI8nBByTbkNXm2--21">
          <mxGeometry width="50" height="50" relative="1" as="geometry">
            <mxPoint x="440" y="350" as="sourcePoint" />
            <mxPoint x="360" y="330" as="targetPoint" />
          </mxGeometry>
        </mxCell>
        <mxCell id="KmzOcnI8nBByTbkNXm2--128" value="Address Internal code review feedback" style="text;html=1;strokeColor=none;fillColor=none;align=center;verticalAlign=middle;whiteSpace=wrap;rounded=0;" vertex="1" parent="1">
          <mxGeometry x="274.5" y="730" width="111" height="20" as="geometry" />
        </mxCell>
        <mxCell id="KmzOcnI8nBByTbkNXm2--129" value="" style="endArrow=classic;html=1;fontFamily=Courier New;fontSize=12;fontColor=#006600;strokeWidth=1;entryX=0.5;entryY=1;entryDx=0;entryDy=0;" edge="1" parent="1" target="KmzOcnI8nBByTbkNXm2--99">
          <mxGeometry width="50" height="50" relative="1" as="geometry">
            <mxPoint x="324" y="710" as="sourcePoint" />
            <mxPoint x="445" y="660" as="targetPoint" />
          </mxGeometry>
        </mxCell>
        <mxCell id="KmzOcnI8nBByTbkNXm2--130" value="Once the PR is approved it will be merged (not rebased) back into bedrock/release" style="text;html=1;strokeColor=none;fillColor=none;align=center;verticalAlign=middle;whiteSpace=wrap;rounded=0;" vertex="1" parent="1">
          <mxGeometry x="394" y="1080" width="236" height="20" as="geometry" />
        </mxCell>
        <mxCell id="KmzOcnI8nBByTbkNXm2--131" value="" style="endArrow=classic;html=1;fontFamily=Courier New;fontSize=12;fontColor=#006600;strokeWidth=1;entryX=0.5;entryY=1;entryDx=0;entryDy=0;exitX=0.449;exitY=-0.1;exitDx=0;exitDy=0;exitPerimeter=0;" edge="1" parent="1">
          <mxGeometry width="50" height="50" relative="1" as="geometry">
            <mxPoint x="441.46399999999994" y="1070" as="sourcePoint" />
            <mxPoint x="440.5" y="1012" as="targetPoint" />
          </mxGeometry>
        </mxCell>
        <mxCell id="KmzOcnI8nBByTbkNXm2--132" value="Once the PR is approved it will be merged (not rebased) back into release" style="text;html=1;strokeColor=none;fillColor=none;align=center;verticalAlign=middle;whiteSpace=wrap;rounded=0;" vertex="1" parent="1">
          <mxGeometry x="425" y="730" width="174" height="20" as="geometry" />
        </mxCell>
        <mxCell id="KmzOcnI8nBByTbkNXm2--133" value="" style="endArrow=classic;html=1;fontFamily=Courier New;fontSize=12;fontColor=#006600;strokeWidth=1;" edge="1" parent="1">
          <mxGeometry width="50" height="50" relative="1" as="geometry">
            <mxPoint x="452" y="720" as="sourcePoint" />
            <mxPoint x="452" y="657" as="targetPoint" />
          </mxGeometry>
        </mxCell>
        <mxCell id="KmzOcnI8nBByTbkNXm2--134" value="Address Bedrock code review feedback" style="text;html=1;strokeColor=none;fillColor=none;align=center;verticalAlign=middle;whiteSpace=wrap;rounded=0;" vertex="1" parent="1">
          <mxGeometry x="240.5" y="1080" width="111" height="20" as="geometry" />
        </mxCell>
        <mxCell id="KmzOcnI8nBByTbkNXm2--135" value="" style="endArrow=classic;html=1;fontFamily=Courier New;fontSize=12;fontColor=#006600;strokeWidth=1;entryX=0.5;entryY=1;entryDx=0;entryDy=0;" edge="1" parent="1">
          <mxGeometry width="50" height="50" relative="1" as="geometry">
            <mxPoint x="290" y="1060" as="sourcePoint" />
            <mxPoint x="290" y="1010" as="targetPoint" />
          </mxGeometry>
        </mxCell>
      </root>
    </mxGraphModel>
  </diagram>
</mxfile>
